<?xml version="1.0" encoding="utf-8"?>
<!-- Uploaded to: SVG Repo, www.svgrepo.com, Generator: SVG Repo Mixer Tools -->
<svg width="800px" height="800px" viewBox="-7 0 48 48" xmlns="http://www.w3.org/2000/svg">
  <g id="Group_25" data-name="Group 25" transform="translate(-383 -214)">
    <path id="Path_28" data-name="Path 28" d="M414,218h-1.184A3,3,0,0,0,410,216H397a2,2,0,0,0-2-2h-6a2,2,0,0,0-2,2h-1a3,3,0,0,0-3,3v38a3,3,0,0,0,3,3h1a2,2,0,0,0,2,2h6a2,2,0,0,0,2-2h17a3,3,0,0,0,3-3V221A3,3,0,0,0,414,218Zm-28,40a1,1,0,0,1-1-1V219a1,1,0,0,1,1-1h1v40Zm9,2h-6V216h6Zm2-32h10v10H397Zm11,30H397v-6h8v-2h-8v-2h10v-2H397v-2h12v-2H397v-2h12V226H397v-8h13a1,1,0,0,1,1,1v38a1,1,0,0,1-1,1Zm7-1a1,1,0,0,1-1,1h-1.184a2.966,2.966,0,0,0,.184-1V220h1a1,1,0,0,1,1,1Z" fill="#303033"/>
    <g id="Group_24" data-name="Group 24">
      <rect id="Rectangle_13" data-name="Rectangle 13" width="4" height="6" transform="translate(413 234)" fill="#7d50f9"/>
      <rect id="Rectangle_14" data-name="Rectangle 14" width="4" height="6" transform="translate(413 244)" fill="#7d50f9"/>
    </g>
  </g>
</svg>