<?xml version="1.0" encoding="utf-8"?>
<!-- Uploaded to: SVG Repo, www.svgrepo.com, Generator: SVG Repo Mixer Tools -->
<svg width="800px" height="800px" viewBox="-2 0 48 48" xmlns="http://www.w3.org/2000/svg">
  <g id="Group_10" data-name="Group 10" transform="translate(-128 -214)">
    <g id="Group_9" data-name="Group 9">
      <circle id="Ellipse_1" data-name="Ellipse 1" cx="3" cy="3" r="3" transform="translate(142 230)" fill="#7d50f9"/>
      <circle id="Ellipse_2" data-name="Ellipse 2" cx="3" cy="3" r="3" transform="translate(152 230)" fill="#7d50f9"/>
      <path id="Path_10" data-name="Path 10" d="M155,241a5,5,0,0,1-10,0Z" fill="#7d50f9"/>
    </g>
    <path id="Path_11" data-name="Path 11" d="M168.887,260a18.964,18.964,0,0,0-7.531-13.228,14.92,14.92,0,0,0,3.6-8.868,5,5,0,0,0,.145-9.782l4.608-7.488A4.037,4.037,0,0,0,166,214H150a15.02,15.02,0,0,0-14.973,14.1,5,5,0,0,0,.019,9.809,14.92,14.92,0,0,0,3.6,8.868A18.967,18.967,0,0,0,131.113,260H128v2h44v-2ZM133,233a3.006,3.006,0,0,1,2-2.829v5.658A3.006,3.006,0,0,1,133,233Zm4-4a13.015,13.015,0,0,1,13-13h16a2.1,2.1,0,0,1,2,3.586l-5,8.131V230h1a3,3,0,0,1,0,6h-1v1a13,13,0,0,1-26,0Zm-3.88,31a16.976,16.976,0,0,1,6.949-11.789,14.909,14.909,0,0,0,19.862,0A16.976,16.976,0,0,1,166.88,260Z" fill="#303033"/>
  </g>
</svg>