<?xml version="1.0" encoding="utf-8"?>
<!-- Uploaded to: SVG Repo, www.svgrepo.com, Generator: SVG Repo Mixer Tools -->
<svg width="800px" height="800px" viewBox="0 -2 48 48" xmlns="http://www.w3.org/2000/svg">
  <g id="Group_43" data-name="Group 43" transform="translate(-376 -466)">
    <circle id="Ellipse_9" data-name="Ellipse 9" cx="2" cy="2" r="2" transform="translate(407 472)" fill="#7d50f9"/>
    <g id="Group_42" data-name="Group 42">
      <path id="Path_57" data-name="Path 57" d="M421,476h-4v-2a8.009,8.009,0,0,0-8-8H397a2.993,2.993,0,0,0-1,5.816V473a3,3,0,0,0,3,3h4v-2a6,6,0,0,1,12,0v11a17,17,0,0,1-32.493,7H397a6.006,6.006,0,0,0,6-6v-8h-2a4,4,0,0,1-4,4H378a2,2,0,0,0-2,2v2a6.009,6.009,0,0,0,4.242,5.736A19.032,19.032,0,0,0,395,503.76V510h2v-6.039c.333.017.664.039,1,.039s.667-.033,1-.051V510h6v-2h-4v-4.261A19,19,0,0,0,416.949,486H419a3,3,0,0,0,3-3v-1.171A3,3,0,0,0,421,476Zm-22-2a1,1,0,0,1-1-1v-1h3.263a7.952,7.952,0,0,0-.263,2Zm3-3.864V470h-5a1,1,0,0,1,0-2h6.726A8.039,8.039,0,0,0,402,470.136ZM378,486v-2h19a5.982,5.982,0,0,0,4-1.531V486a4,4,0,0,1-4,4H382A4,4,0,0,1,378,486Zm41-2h-2v-2h3v1A1,1,0,0,1,419,484Zm2-4h-4v-2h4a1,1,0,0,1,0,2Z" fill="#303033"/>
      <rect id="Rectangle_23" data-name="Rectangle 23" width="8" height="2" transform="translate(386 486)" fill="#303033"/>
    </g>
  </g>
</svg>