<?xml version="1.0" encoding="utf-8"?>
<!-- Uploaded to: SVG Repo, www.svgrepo.com, Generator: SVG Repo Mixer Tools -->
<svg width="800px" height="800px" viewBox="0 -3 48 48" xmlns="http://www.w3.org/2000/svg">
  <g id="Group_39" data-name="Group 39" transform="translate(-501 -467)">
    <path id="Path_48" data-name="Path 48" d="M525,497a5,5,0,0,0,0-10Z" fill="#7d50f9"/>
    <g id="Group_38" data-name="Group 38">
      <path id="Path_49" data-name="Path 49" d="M544,475v-2a2,2,0,0,0-2-2h-2a2,2,0,0,0-2,2v2h-2.382l-2.829-5.658A4.571,4.571,0,0,0,529,467h-8a4.571,4.571,0,0,0-3.789,2.342L514.382,475H506a5.006,5.006,0,0,0-5,5v24a5.006,5.006,0,0,0,5,5h38a5.006,5.006,0,0,0,5-5V480A5.006,5.006,0,0,0,544,475Zm-4-2h2v2h-2Zm7,31a3,3,0,0,1-3,3H506a3,3,0,0,1-3-3V480a3,3,0,0,1,3-3h9.618L519,470.236A2.563,2.563,0,0,1,521,469h8a2.563,2.563,0,0,1,2,1.236L534.382,477H544a3,3,0,0,1,3,3Z" fill="#303033"/>
      <path id="Path_50" data-name="Path 50" d="M525,482a10,10,0,1,0,10,10A10.011,10.011,0,0,0,525,482Zm0,18a8,8,0,1,1,8-8A8.009,8.009,0,0,1,525,500Z" fill="#303033"/>
      <rect id="Rectangle_18" data-name="Rectangle 18" width="6" height="2" transform="translate(506 471)" fill="#303033"/>
      <rect id="Rectangle_19" data-name="Rectangle 19" width="4" height="4" rx="1.5" transform="translate(539 481)" fill="#303033"/>
    </g>
  </g>
</svg>