<?xml version="1.0" encoding="utf-8"?>
<!-- Uploaded to: SVG Repo, www.svgrepo.com, Generator: SVG Repo Mixer Tools -->
<svg width="800px" height="800px" viewBox="0 -5 48 48" xmlns="http://www.w3.org/2000/svg">
  <g id="Group_33" data-name="Group 33" transform="translate(-376 -344)">
    <g id="Group_32" data-name="Group 32">
      <path id="Path_39" data-name="Path 39" d="M419.708,362.273a8.99,8.99,0,0,0-12.214-10.556A11,11,0,0,0,386,355a10.623,10.623,0,0,0,.055,1.063A8.865,8.865,0,0,0,385,356a9,9,0,0,0,0,18h4v-2h-4a7,7,0,1,1,2-13.706l1.663.495-.4-1.686a8.993,8.993,0,1,1,17.586-3.739l.263,1.435,1.244-.763a6.993,6.993,0,0,1,10.123,8.623l-.522,1.269,1.366.109A3.96,3.96,0,0,1,422,368a4,4,0,0,1-4,4h-7v2h7a5.986,5.986,0,0,0,1.708-11.727Z" fill="#303033"/>
      <path id="Path_40" data-name="Path 40" d="M406,364H394a3,3,0,0,0-3,3v12a3,3,0,0,0,3,3h12a3,3,0,0,0,3-3V367A3,3,0,0,0,406,364Zm1,15a1,1,0,0,1-1,1H394a1,1,0,0,1-1-1V367a1,1,0,0,1,1-1h12a1,1,0,0,1,1,1Z" fill="#303033"/>
      <rect id="Rectangle_15" data-name="Rectangle 15" width="10" height="2" transform="translate(395 368)" fill="#303033"/>
      <rect id="Rectangle_16" data-name="Rectangle 16" width="10" height="2" transform="translate(395 372)" fill="#303033"/>
      <rect id="Rectangle_17" data-name="Rectangle 17" width="10" height="2" transform="translate(395 376)" fill="#303033"/>
    </g>
    <path id="Path_41" data-name="Path 41" d="M390,355a7,7,0,0,1,7-7v7Z" fill="#7d50f9"/>
  </g>
</svg>