<?xml version="1.0" encoding="utf-8"?>
<!-- Uploaded to: SVG Repo, www.svgrepo.com, Generator: SVG Repo Mixer Tools -->
<svg width="800px" height="800px" viewBox="0 0 48 48" xmlns="http://www.w3.org/2000/svg">
  <g id="Group_19" data-name="Group 19" transform="translate(-251 -214)">
    <g id="Group_18" data-name="Group 18">
      <path id="Path_20" data-name="Path 20" d="M275,222a16,16,0,1,0,16,16A16.019,16.019,0,0,0,275,222Zm13.949,17a13.919,13.919,0,0,1-3.381,8.154l-2.083-2.083-1.414,1.414,2.083,2.083A13.919,13.919,0,0,1,276,251.949V249h-2v2.949a13.919,13.919,0,0,1-8.154-3.381l2.083-2.083-1.414-1.414-2.083,2.083A13.919,13.919,0,0,1,261.051,239H264v-2h-2.949a13.919,13.919,0,0,1,3.381-8.154l2.79,2.79,1.414-1.414-2.79-2.79A13.919,13.919,0,0,1,274,224.051V228h2v-3.949a13.919,13.919,0,0,1,8.154,3.381l-2.083,2.083,1.414,1.414,2.083-2.083A13.919,13.919,0,0,1,288.949,237H286v2Z" fill="#303033"/>
      <path id="Path_21" data-name="Path 21" d="M297,235h-.21A22.041,22.041,0,0,0,278,216.21V216a2,2,0,0,0-2-2h-2a2,2,0,0,0-2,2v.21A22.041,22.041,0,0,0,253.21,235H253a2,2,0,0,0-2,2v2a2,2,0,0,0,2,2h.21A22.041,22.041,0,0,0,272,259.79V260a2,2,0,0,0,2,2h2a2,2,0,0,0,2-2v-.21A22.041,22.041,0,0,0,296.79,241H297a2,2,0,0,0,2-2v-2A2,2,0,0,0,297,235Zm-22,23a20,20,0,1,1,20-20A20.023,20.023,0,0,1,275,258Z" fill="#303033"/>
    </g>
    <path id="Path_22" data-name="Path 22" d="M277.545,240.545,282,238l-4.455-2.545L275,231l-2.545,4.455L268,238l4.455,2.545L275,245Z" fill="#7d50f9"/>
  </g>
</svg>