<?xml version="1.0" encoding="utf-8"?>
<!-- Uploaded to: SVG Repo, www.svgrepo.com, Generator: SVG Repo Mixer Tools -->
<svg width="800px" height="800px" viewBox="0 -3 48 48" xmlns="http://www.w3.org/2000/svg">
  <g id="Group_41" data-name="Group 41" transform="translate(-501 -342)">
    <circle id="Ellipse_8" data-name="Ellipse 8" cx="2" cy="2" r="2" transform="translate(516 366)" fill="#7d50f9"/>
    <g id="Group_40" data-name="Group 40">
      <path id="Path_51" data-name="Path 51" d="M533,380a2,2,0,0,1-2,2H505a2,2,0,0,1-2-2V346a2,2,0,0,1,2-2h26a2,2,0,0,1,2,2v12h2V346a4,4,0,0,0-4-4H505a4,4,0,0,0-4,4v34a4,4,0,0,0,4,4h26a4,4,0,0,0,4-4v-2h-2Z" fill="#303033"/>
      <path id="Path_52" data-name="Path 52" d="M518,378a10,10,0,1,0-10-10A10.011,10.011,0,0,0,518,378Zm0-18a8,8,0,1,1-8,8A8.009,8.009,0,0,1,518,360Z" fill="#303033"/>
      <rect id="Rectangle_20" data-name="Rectangle 20" width="2" height="12" transform="translate(541 362)" fill="#303033"/>
      <rect id="Rectangle_21" data-name="Rectangle 21" width="2" height="24" transform="translate(547 356)" fill="#303033"/>
      <rect id="Rectangle_22" data-name="Rectangle 22" width="2" height="6" transform="translate(535 365)" fill="#303033"/>
      <path id="Path_53" data-name="Path 53" d="M512,351a2,2,0,1,0-2,2A2,2,0,0,0,512,351Zm-2,0v1l0-1Z" fill="#303033"/>
      <path id="Path_54" data-name="Path 54" d="M526,349a2,2,0,1,0,2,2A2,2,0,0,0,526,349Zm0,3,0-1h0Z" fill="#303033"/>
      <path id="Path_55" data-name="Path 55" d="M520,351a2,2,0,1,0-2,2A2,2,0,0,0,520,351Zm-2,0v1l0-1Z" fill="#303033"/>
      <path id="Path_56" data-name="Path 56" d="M518,374a6,6,0,1,0-6-6A6.006,6.006,0,0,0,518,374Zm0-10a4,4,0,1,1-4,4A4,4,0,0,1,518,364Z" fill="#303033"/>
    </g>
  </g>
</svg>