<?xml version="1.0" encoding="utf-8"?>
<!-- Uploaded to: SVG Repo, www.svgrepo.com, Generator: SVG Repo Mixer Tools -->
<svg width="800px" height="800px" viewBox="-2 0 48 48" xmlns="http://www.w3.org/2000/svg">
  <g id="Group_45" data-name="Group 45" transform="translate(-503 -214)">
    <g id="Group_44" data-name="Group 44">
      <path id="Path_58" data-name="Path 58" d="M542,234v2a3,3,0,0,1,3,3v18a3,3,0,0,1-6,0V219a5.006,5.006,0,0,0-5-5H508a5.006,5.006,0,0,0-5,5v38a5.006,5.006,0,0,0,5,5h34a5.006,5.006,0,0,0,5-5V239A5.006,5.006,0,0,0,542,234Zm-37,23V219a3,3,0,0,1,3-3h26a3,3,0,0,1,3,3v38a4.948,4.948,0,0,0,1.026,3H508A3,3,0,0,1,505,257Z" fill="#303033"/>
      <rect id="Rectangle_24" data-name="Rectangle 24" width="2" height="10" transform="translate(511 244)" fill="#303033"/>
      <rect id="Rectangle_25" data-name="Rectangle 25" width="2" height="20" transform="translate(517 234)" fill="#303033"/>
      <rect id="Rectangle_26" data-name="Rectangle 26" width="2" height="10" transform="translate(523 244)" fill="#303033"/>
      <rect id="Rectangle_27" data-name="Rectangle 27" width="2" height="20" transform="translate(529 234)" fill="#303033"/>
    </g>
    <path id="Path_59" data-name="Path 59" d="M531,230v-8h-8Z" fill="#7d50f9"/>
  </g>
</svg>