<?xml version="1.0" encoding="utf-8"?>
<!-- Uploaded to: SVG Repo, www.svgrepo.com, Generator: SVG Repo Mixer Tools -->
<svg width="800px" height="800px" viewBox="0 -6 48 48" xmlns="http://www.w3.org/2000/svg">
  <g id="Group_23" data-name="Group 23" transform="translate(-251 -345)">
    <g id="Group_22" data-name="Group 22">
      <path id="Path_26" data-name="Path 26" d="M291,363.059V351.7l-3.613-5.42A3.066,3.066,0,0,0,285,345H257a3.066,3.066,0,0,0-2.387,1.277L251,351.7V376a5.006,5.006,0,0,0,5,5h23v-2H256a3,3,0,0,1-3-3V353h10v5a3,3,0,0,0,3,3h10a3,3,0,0,0,3-3v-5h10v10.059a9,9,0,1,0,2,0Zm-5.277-15.672L288.132,351h-9.514l-2-4H285A1.132,1.132,0,0,1,285.723,347.387ZM276.382,351H265.618l2-4h6.764Zm-20.1-3.613A1.132,1.132,0,0,1,257,347h8.382l-2,4h-9.514ZM277,358a1,1,0,0,1-1,1H266a1,1,0,0,1-1-1v-5h12Zm13,21a7,7,0,1,1,7-7A7.008,7.008,0,0,1,290,379Z" fill="#303033"/>
      <rect id="Rectangle_10" data-name="Rectangle 10" width="6" height="2" transform="translate(257 365)" fill="#303033"/>
      <rect id="Rectangle_11" data-name="Rectangle 11" width="8" height="2" transform="translate(257 369)" fill="#303033"/>
      <rect id="Rectangle_12" data-name="Rectangle 12" width="10" height="2" transform="translate(257 373)" fill="#303033"/>
    </g>
    <path id="Path_27" data-name="Path 27" d="M286,370h8l-4,6Z" fill="#7d50f9"/>
  </g>
</svg>