<?xml version="1.0" encoding="utf-8"?>
<!-- Uploaded to: SVG Repo, www.svgrepo.com, Generator: SVG Repo Mixer Tools -->
<svg width="800px" height="800px" viewBox="-6 0 48 48" xmlns="http://www.w3.org/2000/svg">
  <g id="Group_8" data-name="Group 8" transform="translate(-132 -89)">
    <path id="Path_8" data-name="Path 8" d="M151,91h4V89h-4a4,4,0,0,0-4,4v18a4,4,0,1,0,4-4,3.955,3.955,0,0,0-2,.555V93A2,2,0,0,1,151,91Z" fill="#7d50f9"/>
    <path id="Path_9" data-name="Path 9" d="M164,98H149v2h15a2,2,0,0,1,2,2v18a2,2,0,0,1-2,2H146a2,2,0,0,1-2-2V104a6,6,0,0,0-12,0v16a4,4,0,0,0,4,4h2v-2h-2a2,2,0,0,1-2-2V104a4,4,0,0,1,8,0v16a4,4,0,0,0,4,4h1v11h-9v2h28v-2h-9V124h7a4,4,0,0,0,4-4V102A4,4,0,0,0,164,98Zm-9,37h-6V124h2v6h2v-6h2Z" fill="#303033"/>
  </g>
</svg>