<?xml version="1.0" encoding="utf-8"?>
<!-- Uploaded to: SVG Repo, www.svgrepo.com, Generator: SVG Repo Mixer Tools -->
<svg width="800px" height="800px" viewBox="-5 0 48 48" xmlns="http://www.w3.org/2000/svg">
  <g id="Group_14" data-name="Group 14" transform="translate(-631 -89)">
    <g id="Group_12" data-name="Group 12">
      <path id="Path_14" data-name="Path 14" d="M642,89h-8a3,3,0,0,0-3,3v42a3,3,0,0,0,3,3h8a3,3,0,0,0,3-3V92A3,3,0,0,0,642,89Zm1,45a1,1,0,0,1-1,1h-8a1,1,0,0,1-1-1v-2h4v-2h-4v-2h2v-2h-2v-2h2v-2h-2v-2h4v-2h-4v-2h2v-2h-2v-2h2v-2h-2v-2h4v-2h-4v-2h2v-2h-2v-2h2V98h-2V96h4V94h-4V92a1,1,0,0,1,1-1h8a1,1,0,0,1,1,1Z" fill="#303033"/>
      <path id="Path_15" data-name="Path 15" d="M666,89h-8a3,3,0,0,0-3,3v34.234l4.314,8.719C660.2,136.734,661.376,137,662,137s1.8-.266,2.686-2.048L669,126.234V92A3,3,0,0,0,666,89Zm-6.191,42.443-2.535-5.122a5.971,5.971,0,0,1,9.451,0l-2.535,5.122A6.148,6.148,0,0,0,659.809,131.443ZM658,91h8a1,1,0,0,1,1,1v31.773a7.965,7.965,0,0,0-4-1.71V101h-2v21.063a7.982,7.982,0,0,0-4,1.71V92A1,1,0,0,1,658,91Z" fill="#303033"/>
    </g>
    <g id="Group_13" data-name="Group 13">
      <rect id="Rectangle_5" data-name="Rectangle 5" width="10" height="2" transform="translate(657 100)" fill="#7d50f9"/>
      <rect id="Rectangle_6" data-name="Rectangle 6" width="10" height="2" transform="translate(657 96)" fill="#7d50f9"/>
    </g>
  </g>
</svg>