<?xml version="1.0" encoding="utf-8"?>
<!-- Uploaded to: SVG Repo, www.svgrepo.com, Generator: SVG Repo Mixer Tools -->
<svg width="800px" height="800px" viewBox="0 -1 47.998 47.998" xmlns="http://www.w3.org/2000/svg">
  <g id="Group_26" data-name="Group 26" transform="translate(-626 -340)">
    <path id="Path_29" data-name="Path 29" d="M672.609,376.222,663.7,365.59l-3.866,3.248-4.182-5.019a18.918,18.918,0,0,0,6.31-9.547.986.986,0,0,0,0-.544,18.615,18.615,0,0,0-35.924,0,.986.986,0,0,0,0,.544A18.81,18.81,0,0,0,644,368a18.439,18.439,0,0,0,10.037-2.992l4.265,5.118-3.71,3.118,8.907,10.629a5.948,5.948,0,1,0,9.11-7.651ZM628.042,354a16.611,16.611,0,0,1,31.916,0,16.611,16.611,0,0,1-31.916,0Zm35.412,14.41,2.976,3.551-6.049,5.077-2.973-3.548Zm7.136,14.665a3.94,3.94,0,0,1-5.558-.487l-3.367-4.018,6.049-5.076,3.362,4.013A3.959,3.959,0,0,1,670.59,383.075Z" fill="#303033"/>
    <path id="Path_30" data-name="Path 30" d="M650,354a6,6,0,1,1-6-6,4.409,4.409,0,0,1,.52.03,4,4,0,0,0,5.45,5.45A4.4,4.4,0,0,1,650,354Z" fill="#7d50f9"/>
  </g>
</svg>