<?xml version="1.0" encoding="utf-8"?>
<!-- Uploaded to: SVG Repo, www.svgrepo.com, Generator: SVG Repo Mixer Tools -->
<svg width="800px" height="800px" viewBox="-1 0 48 48" xmlns="http://www.w3.org/2000/svg">
  <g id="Group_29" data-name="Group 29" transform="translate(-127 -339)">
    <circle id="Ellipse_3" data-name="Ellipse 3" cx="4" cy="4" r="4" transform="translate(147 361)" fill="#7d50f9"/>
    <g id="Group_28" data-name="Group 28">
      <path id="Path_33" data-name="Path 33" d="M151,354a11,11,0,1,0,11,11A11.013,11.013,0,0,0,151,354Zm0,20a9,9,0,1,1,9-9A9.01,9.01,0,0,1,151,374Z" fill="#303033"/>
      <path id="Path_34" data-name="Path 34" d="M170,361h-2.484a16.81,16.81,0,0,0-2.026-4.833l1.774-1.773a3.005,3.005,0,0,0,0-4.244l-1.414-1.414a3,3,0,0,0-4.243,0l-1.773,1.774A16.809,16.809,0,0,0,155,348.484V346a3,3,0,0,0-3-3h-2a3,3,0,0,0-3,3v2.484A17.117,17.117,0,0,0,134.484,361H132a3,3,0,0,0-3,3v2a3,3,0,0,0,3,3h2.484a16.81,16.81,0,0,0,2.026,4.833l-1.774,1.773a3.005,3.005,0,0,0,0,4.244l1.414,1.414a3,3,0,0,0,4.243,0l1.773-1.774A16.809,16.809,0,0,0,147,381.516V384a3,3,0,0,0,3,3h2a3,3,0,0,0,3-3v-2.484a16.809,16.809,0,0,0,4.833-2.026l1.773,1.774a3,3,0,0,0,4.243,0l1.415-1.414a3.005,3.005,0,0,0,0-4.244l-1.773-1.773A16.81,16.81,0,0,0,167.516,369H170a3,3,0,0,0,3-3v-2A3,3,0,0,0,170,361Zm-6.979-10.85a1,1,0,0,1,1.414,0l1.414,1.414a1,1,0,0,1,0,1.415l-1.521,1.521a17.274,17.274,0,0,0-2.828-2.828Zm-24.042,29.7a1,1,0,0,1-1.414,0l-1.414-1.414a1,1,0,0,1,0-1.415l1.521-1.521a17.274,17.274,0,0,0,2.828,2.828Zm26.87-2.829a1,1,0,0,1,0,1.415l-1.414,1.414a1,1,0,0,1-1.414,0l-1.522-1.522a17.24,17.24,0,0,0,2.829-2.828ZM171,366a1,1,0,0,1-1,1h-4.119l-.154.813a15.08,15.08,0,0,1-11.914,11.914l-.813.154V384a1,1,0,0,1-1,1h-2a1,1,0,0,1-1-1v-4.119l-.813-.154a15.08,15.08,0,0,1-11.914-11.914l-.154-.813H132a1,1,0,0,1-1-1v-2a1,1,0,0,1,1-1h4.119l.154-.813a15.08,15.08,0,0,1,11.914-11.914l.813-.154V346a1,1,0,0,1,1-1h2a1,1,0,0,1,1,1v4.119l.813.154a15.08,15.08,0,0,1,11.914,11.914l.154.813H170a1,1,0,0,1,1,1Z" fill="#303033"/>
      <path id="Path_35" data-name="Path 35" d="M139,345a6,6,0,1,0-6,6A6.006,6.006,0,0,0,139,345Zm-10,0a4,4,0,1,1,4,4A4,4,0,0,1,129,345Z" fill="#303033"/>
      <circle id="Ellipse_4" data-name="Ellipse 4" cx="2" cy="2" r="2" transform="translate(131 343)" fill="#303033"/>
    </g>
  </g>
</svg>