<?xml version="1.0" encoding="utf-8"?>
<!-- Uploaded to: SVG Repo, www.svgrepo.com, Generator: SVG Repo Mixer Tools -->
<svg width="800px" height="800px" viewBox="0 0 1024 1024" class="icon"  version="1.1" xmlns="http://www.w3.org/2000/svg"><path d="M512 512m-512 0a512 512 0 1 0 1024 0 512 512 0 1 0-1024 0Z" fill="#8DD9FF" /><path d="M306.846 42.884C282.266 85.666 268 135.122 268 188c0 161.266 130.732 292 292 292s292-130.734 292-292c0-22.462-2.776-44.236-7.578-65.242C754.962 46.282 638.918 0 512 0c-72.976 0-142.33 15.37-205.154 42.884z" fill="#FFFFF4" /><path d="M560 188m-137.278 0a137.278 137.278 0 1 0 274.556 0 137.278 137.278 0 1 0-274.556 0Z" fill="#FFFFF4" /><path d="M696.17 612.834c0-24.444-19.816-44.262-44.262-44.262-3.69 0-7.216 0.584-10.644 1.434-11.55-12.472-27.924-20.404-46.264-20.404-34.922 0-63.23 28.31-63.23 63.23h164.4z" fill="#FFFFFF" /><path d="M342.636 612.834c0-33.41-27.084-60.494-60.494-60.494-5.042 0-9.864 0.798-14.546 1.96-15.786-17.046-38.166-27.886-63.232-27.886-47.728 0-86.422 38.692-86.422 86.422h224.694zM546.174 583.498c-3.078 0-5.986 0.606-8.774 1.484-8.832-12.694-23.48-21.042-40.116-21.042s-31.286 8.346-40.116 21.042c-2.788-0.88-5.696-1.484-8.774-1.484-16.202 0-29.334 13.134-29.334 29.334h156.452c-0.004-16.2-13.138-29.334-29.338-29.334zM870.338 589.216c-2.478 0-4.82 0.488-7.064 1.196-7.11-10.22-18.904-16.94-32.298-16.94s-25.188 6.72-32.298 16.94c-2.244-0.708-4.586-1.196-7.064-1.196-13.044 0-23.616 10.574-23.616 23.616h125.956c0.002-13.042-10.572-23.616-23.616-23.616z" fill="#FFFFFF" /><path d="M978.896 583.86c-3.04 0-5.912 0.598-8.666 1.466-8.722-12.538-23.192-20.782-39.624-20.782s-30.9 8.244-39.624 20.782c-2.754-0.868-5.626-1.466-8.666-1.466-16.002 0-28.974 12.972-28.974 28.974h154.526c0.002-16.002-12.97-28.974-28.972-28.974z" fill="#FFFFFF" /><path d="M1007.87 640H93.334L176 832s236.274 138.666 304.804 154.666c28.182 6.58 77.542 17.668 125.896 28.448C802.28 978.52 958.744 830.866 1007.87 640z" fill="#57B9E7" /><path d="M949.566 777.974c-90.412-36.49-253.754-60.906-440.576-60.906-158.144 0-299.578 17.48-394.142 44.974l25.95 59.264s175.652 101.352 279.552 146.722c28.814 1.226 58.398 1.9 88.64 1.9 96.968 0 187.532-6.618 264.998-18.038 71.726-42.812 132.138-102.606 175.578-173.916z" fill="#B3F4EF" /><path d="M930.302 807.114H264.384V854h628.548c13.358-14.856 25.806-30.534 37.37-46.886z" fill="#FFFFFF" /><path d="M901.872 843.498H264.384S392.964 930 394.482 930c0.982 0 192.606 16.7 327.886 28.5 17.726-1.988 35.03-4.164 51.62-6.608 48.422-28.904 91.516-65.694 127.884-108.394z" fill="#FFF8DB" /><path d="M512 666c179.66 0 343.304 21.576 466.314 56.942 12.042-26.562 22.154-54.186 29.554-82.942H93.334l27.624 64.158C232.218 680.102 366.86 666 512 666z" fill="#57B9E7" /><path d="M95.438 648a16 16 0 0 1-6.938-30.422c69.938-33.602 153.312-107.062 153.312-266.218 0-8.836 7.156-16 16-16s16 7.164 16 16c0 175.796-93.25 257.484-171.468 295.062a15.968 15.968 0 0 1-6.906 1.578z" fill="#8C665B" /><path d="M264.092 336.366s-96.428-2.524-99.782 96.376c0 0 10.934-8.866 14.764-17.14 0 0 2.476 5.014 0.722 10.248 0 0 9.016-8.764 11.382-18.472 0 0 1.63 3.622 0.032 8.866 0 0 9.416-7.736 12.014-13.914 0 0 1.534 2.778-0.6 6.65 0 0 8.934-7.766 11.164-18.822 0 0 2.726 2.524 2.026 8.33 0 0 10.682-12.666 11.792-19.948 0 0 3.646 1.522 1.562 7.014 0-0.002 26.176-19.456 34.924-49.188z" fill="#43AB5F" /><path d="M264.092 336.366s81.684 51.31 29.694 135.51c0 0-4.194-13.438-2.798-22.448 0 0-4.84 2.802-6.278 8.132 0 0-2.654-12.29 0.756-21.686 0 0-3.364 2.114-4.936 7.366 0 0-3.556-11.656-2.296-18.24 0 0-2.816 1.464-3.184 5.87 0 0-3.136-11.416 1.13-21.854 0 0-3.668 0.592-6.3 5.812 0 0-1.878-16.462 1.232-23.14 0 0-3.88-0.752-5.186 4.976-0.002-0.002-11.018-30.698-1.834-60.298z" fill="#43AB5F" /><path d="M264.092 336.366s9.924-100.266-86.094-110.032c0 0 7.784 11.95 15.542 16.464 0 0-5.074 2.26-10.034 0.1 0 0 7.834 9.946 17.102 13.026 0 0-3.652 1.47-8.634-0.528 0 0 6.8 10.296 12.616 13.394 0 0-2.822 1.42-6.426-1.046 0 0 6.868 9.796 17.458 12.82 0 0-2.668 2.68-8.266 1.584 0 0 11.504 11.926 18.508 13.546 0 0-1.766 3.7-6.95 1.18 0 0 16.912 28.494 45.178 39.492z" fill="#52C883" /><path d="M264.092 336.366s-72.242-81.592-157.3-7.542c0 0 15.824 2.142 25.676-1.12 0 0-2.274 5.94-7.992 8.556 0 0 14.26 0.638 24.18-4.95 0 0-1.762 4.16-7.368 6.912 0 0 13.71 1.768 20.866-0.886 0 0-1.136 3.424-6.008 4.67 0 0 13.364 1.346 24.302-5.402 0 0-0.002 4.212-5.384 8.144 0 0 18.798-1.018 25.728-5.758 0 0 1.542 4.194-4.646 6.74 0.002 0.002 36.408 6.504 67.946-9.364zM264.092 336.366s105.342-27.918 135.144 80.85c0 0-14.362-6.98-20.758-15.154 0 0-1.398 6.204 1.914 11.55 0 0-12.226-7.368-17.39-17.516 0 0-0.838 4.44 2.306 9.838 0 0-12.394-6.122-16.882-12.296 0 0-0.95 3.48 2.416 7.216 0 0-11.872-6.282-17.242-17.96 0 0-2.33 3.51-0.028 9.764 0 0-15.088-11.26-18.23-19.044 0 0-3.606 2.638 0.136 8.184-0.004 0-33.916-14.75-51.386-45.432z" fill="#34BE69" /><path d="M264.092 336.366s19.218-107.27 130.388-88.314c0 0-12.396 10.068-22.506 12.41 0 0 5.032 3.888 11.276 3.146 0 0-11.846 7.966-23.222 8.358 0 0 3.668 2.638 9.888 2.068 0 0-10.784 8.646-18.278 10.104 0 0 2.75 2.33 7.56 0.86 0 0-10.712 8.104-23.562 8.036 0 0 2.196 3.596 8.836 4.152 0 0-16.58 8.916-24.964 8.474 0 0 0.866 4.384 7.476 3.336-0.002 0.002-27.702 24.504-62.892 27.37z" fill="#52C883" /><path d="M206.116 819.5v-32.466c51.456 0 174.184-135.482 177.434-195.894l32.434 1.744c-4.248 78.366-141.528 226.616-209.868 226.616z" fill="#8C665B" /><path d="M560 188m-53.97 0a53.97 53.97 0 1 0 107.94 0 53.97 53.97 0 1 0-107.94 0Z" fill="#FFFFFF" /><path d="M415.19 864c-39.648-32-82.232-1.334-105.728-48-13.858-27.526-75.732-8.8-105.728-32-39.648-30.666-33.578-70.166-52.864-112-24.78-53.75-86.986-91.092-146.69-95.55C35.896 828.772 251.076 1024 512 1024c129.798 0 248.23-48.394 338.474-128H503.296c-42.586 0-64.618-13.042-88.106-32z" fill="#8C665B" /><path d="M404.448 596.854s-105.6-12.472-119.232 95.756c0 0 12.896-8.634 17.932-17.33 0 0 2.214 5.754-0.238 11.324 0 0 10.778-8.712 14.354-19.134 0 0 1.426 4.14-0.858 9.736 0 0 11.116-7.544 14.588-14.066 0 0 1.404 3.204-1.328 7.24 0 0 10.59-7.626 14.15-19.538 0 0 2.738 3.046 1.386 9.348 0 0 13-12.83 14.952-20.712 0 0 3.85 2.038 1.008 7.858 0-0.002 30.69-18.726 43.286-50.482z" fill="#43AB5F" /><path d="M404.448 596.854s84.504 64.544 18.962 151.742c0 0-3.25-15.174-0.814-24.924 0 0-5.594 2.59-7.71 8.296 0 0-1.676-13.758 3.01-23.728 0 0-3.904 1.982-6.16 7.588 0 0-2.73-13.154-0.684-20.254 0 0-3.238 1.324-4.086 6.122 0 0-2.294-12.848 3.438-23.878 0 0-4.086 0.28-7.5 5.746 0 0-0.406-18.26 3.68-25.278 0 0-4.182-1.216-6.194 4.94 0.002 0.002-9.002-34.804 4.058-66.372z" fill="#43AB5F" /><path d="M404.448 596.854s20.982-109.068-83.438-129.448c0 0 7.342 13.9 15.404 19.636 0 0-5.796 1.97-11.024-0.898 0 0 7.598 11.706 17.462 16.02 0 0-4.156 1.246-9.424-1.448 0 0 6.43 11.986 12.502 15.972 0 0-3.242 1.274-6.95-1.796 0 0 6.554 11.446 17.874 15.828 0 0-3.2 2.674-9.234 0.906 0 0 11.428 14.25 18.954 16.732 0 0-2.31 3.884-7.748 0.596 0.002 0.002 15.7 32.98 45.622 47.9z" fill="#52C883" /><path d="M404.448 596.854s-71.094-96.836-171.918-24.106c0 0 17.156 3.944 28.3 1.354 0 0-3.094 6.292-9.634 8.59 0 0 15.59 2.136 27.042-3 0 0-2.352 4.39-8.784 6.846 0 0 14.872 3.32 22.996 1.126 0 0-1.59 3.644-7.064 4.522 0 0 14.534 2.822 27.222-3.484 0 0-0.426 4.624-6.73 8.398 0 0 20.738 0.774 28.822-3.732 0 0 1.27 4.76-5.778 6.93-0.002 0 39.308 10.8 75.526-3.444zM404.448 596.854s118.446-20.048 140.218 102.35c0 0-15.064-9.108-21.262-18.722 0 0-2.158 6.67 0.938 12.87 0 0-12.68-9.318-17.328-20.978 0 0-1.366 4.79 1.542 11.03 0 0-12.99-7.966-17.296-15.198 0 0-1.392 3.724 1.926 8.166 0 0-12.4-8.092-17.12-21.45 0 0-2.912 3.618-1.014 10.714 0 0-15.43-13.878-18.096-22.74 0 0-4.224 2.534-0.674 8.998-0.002 0.002-35.744-19.602-51.834-55.04z" fill="#34BE69" /><path d="M404.448 596.854s31.888-115.822 152.018-83.828c0 0-14.62 9.804-25.956 11.358 0 0 5.134 4.774 12.062 4.588 0 0-13.804 7.554-26.334 6.838 0 0 3.762 3.264 10.646 3.266 0 0-12.708 8.406-21.08 9.254 0 0 2.786 2.836 8.212 1.706 0 0-12.574 7.818-26.674 6.452 0 0 2.05 4.168 9.282 5.448 0 0-19.098 8.118-28.258 6.79 0 0 0.51 4.9 7.87 4.414 0.002-0.002-32.87 24.108-71.788 23.714z" fill="#52C883" /><path d="M796.516 432h-32c0 168.766 52.306 294.5 159.45 383.972 6.358-8.602 12.384-17.458 18.204-26.46-97.882-83.006-145.654-200.12-145.654-357.512z" fill="#8C665B" /><path d="M776.754 427.324s-116.832 49.294-67.192 169.534c0 0 8.284-16.55 8.38-28.534 0 0 5.686 4.66 6.424 11.88 0 0 6.042-15.384 3.608-28.294 0 0 3.918 3.452 4.848 10.598 0 0 7.078-14.372 6.836-23.18 0 0 3.342 2.494 2.89 8.288 0 0 6.484-14.148 3.156-28.594 0 0 4.634 1.544 6.946 8.874 0 0 5.92-20.962 3.296-30.284 0 0 5.192-0.156 5.676 7.552 0 0.002 20.788-37.494 15.132-77.84z" fill="#43AB5F" /><path d="M776.754 427.324s125.646 17.124 109.074 146.15c0 0-12.312-13.816-15.53-25.36 0 0-4.274 5.982-3.104 13.144 0 0-9.844-13.276-10.86-26.376 0 0-2.882 4.356-1.914 11.498 0 0-10.582-12.028-12.644-20.596 0 0-2.578 3.282-0.628 8.756 0 0-9.948-11.968-10.504-26.782 0 0-4.07 2.698-4.39 10.378 0 0-11.182-18.694-11.08-28.376 0 0-5.054 1.204-3.51 8.772-0.002-0.004-29.848-30.784-34.91-71.208z" fill="#43AB5F" /><path d="M776.754 427.324s-42.516-125.442-162.784-85.044c0 0 15.802 10.086 27.542 11.282 0 0-4.848 5.458-11.958 5.564 0 0 14.776 7.66 27.544 6.318 0 0-3.576 3.74-10.624 4.052 0 0 13.728 8.638 22.374 9.194 0 0-2.61 3.23-8.264 2.234 0 0 13.538 8.004 27.86 5.878 0 0-1.74 4.658-9.04 6.382 0 0 20.244 8.04 29.512 6.178 0 0-0.106 5.388-7.682 5.184-0.002 0 35.708 24.942 75.52 22.778z" fill="#52C883" /><path d="M776.754 427.324s-130.768-58.504-192.444 76.31c0 0 20.11-6.02 30.138-15.272 0 0 0.5 8.346-4.926 14.582 0 0 17.422-6.972 26.268-19.046 0 0 0.148 5.936-5.072 12.274 0 0 17.376-5.32 24.504-12.382 0 0 0.498 4.714-4.66 8.85 0 0 16.732-5.64 26.17-19.652 0 0 2.282 5.046-2.028 12.674 0 0 21.956-11.416 27.682-20.854 0 0 4.12 4.186-1.908 10.59 0.002 0.002 47.12-11.964 76.276-48.074z" fill="#34BE69" /><path d="M776.754 427.324s110.99-90.58 205.684 23.49c0 0-20.984-0.566-33.076-6.882 0 0 1.692 8.186 8.558 12.792 0 0-18.638-2.19-30.326-11.538 0 0 1.406 5.772 8.098 10.528 0 0-18.162-0.604-26.886-5.564 0 0 0.75 4.682 6.808 7.33 0 0-17.624-1.082-30.39-12.15 0 0-0.886 5.468 5.262 11.706 0 0-24.174-5.296-32.162-12.912 0 0-2.886 5.116 4.602 9.726 0.002-0.004-48.608 0.734-86.172-26.526z" fill="#34BE69" /><path d="M776.754 427.324s-35.186-138.87 108.214-176.488c0 0-9.38 18.78-20.218 27.07 0 0 8.136 1.926 15.21-2.35 0 0-9.862 15.966-23.272 22.606 0 0 5.824 1.168 12.962-2.888 0 0-8.222 16.204-16.404 22.016 0 0 4.558 1.298 9.52-3.072 0 0-8.428 15.516-23.854 22.406 0 0 4.58 3.114 12.832 0.18 0 0-15.016 19.67-25.294 23.69 0 0 3.416 4.778 10.76-0.062 0.002 0.002-19.874 44.368-60.456 66.892z" fill="#52C883" /><path d="M129.044 722.942c-28.354-57.338-64.972-55.276-105.776-58.678C88.09 872.646 282.282 1024 512 1024c100.416 0 193.964-29.062 272.986-79.036-25.596-3.732-54.32-11.632-104.454 9.886-25.078 10.764-60.038-36.008-83.19-38.85-65.136-8-136.01 42.5-178.286 8-54.216-44.242-77.056-4-120.646-23.002-43.59-19-20.49-54.504-37.974-73.442-27.906-30.222-89.77-20.442-131.392-104.614z" fill="#674447" /></svg>