<?xml version="1.0" encoding="utf-8"?>
<!-- Uploaded to: SVG Repo, www.svgrepo.com, Generator: SVG Repo Mixer Tools -->
<svg width="800px" height="800px" viewBox="0 0 1024 1024" class="icon"  version="1.1" xmlns="http://www.w3.org/2000/svg"><path d="M512 512m-512 0a512 512 0 1 0 1024 0 512 512 0 1 0-1024 0Z" fill="#9AF4EF" /><path d="M871.744 147.772c-29.4 10.562-51.75 35.902-58.05 67.088-0.61-0.01-1.2-0.092-1.812-0.092-48.482 0-89.51 31.814-103.414 75.692-7.434-1.978-15.098-3.368-23.154-3.368-49.93 0-90.406 40.476-90.406 90.406l51.188 161.036s296.634 22.31 302.73 21.252c2.866-0.498 38.074-34.916 74.566-71.852-6.156-132.932-62.996-252.594-151.648-340.162z" fill="#C5F8F1" /><path d="M606.168 380.726c0.094-1.944 0.294-3.86 0.294-5.828 0-65.796-53.338-119.134-119.134-119.134-5.288 0-10.458 0.464-15.564 1.13-24.862-51-77.054-86.228-137.61-86.228-61.664 0-114.678 36.518-138.962 89.038-23.142-23.434-55.262-37.982-90.798-37.982-5 0-9.906 0.364-14.754 0.922C33.128 304.972 0 404.602 0 512c0 3.214 0.184 6.384 0.242 9.584 13.654 5.18 31.248 8.276 53.938 8.024 121.904-1.354 497.65-40.374 504.624-39.232 6.974 1.142 109.924 20.682 109.924 20.682a101.96 101.96 0 0 0 5.812-34.044c0-44.554-28.58-82.34-68.372-96.288z" fill="#DEFBF2" /><path d="M13.088 397.176C4.622 434.106 0 472.502 0 512c0 282.77 229.23 512 512 512s512-229.23 512-512c0-30.378-2.798-60.086-7.872-89.01-92.198 3.986-95.806 72.762-211.23 72.762l-162.868 1.882c-39.724 0-209.076-133.808-317.794-133.808-106.868 0-181.544 32.25-311.148 33.35z" fill="#94D75B" /><path d="M674.54 570.706c22.35-79.022-83.302 14.438-87.366 22.564-3.026 6.054-139.064 275.876-208.276 413.15A512.41 512.41 0 0 0 512 1024c114.974 0 221.09-37.902 306.552-101.884l26.654-124.766c-40.634-86.238-193.016-147.62-170.666-226.644zM83.57 792.226l412.814-74.344 62.42-201.648c-105.046 18.79-229.81 66.198-384.074 22.3-50.676-14.42-127.322-22.3-174.23-6.718 3.658 95.93 33.682 185.058 83.07 260.41z" fill="#71BE63" /><path d="M316.95 920.38c-9.118 11.922-21.624 30.396-34.092 49.458 58.616 29.396 123.634 47.826 192.432 52.706C589.8 940.46 653.08 583.69 690.496 538.534c0 0-347.13 347.308-373.546 381.846z" fill="#FFEFC6" /><path d="M435.556 837.08a16.17 16.17 0 0 1-10.92-4.214 16.244 16.244 0 0 1-1.126-22.952c12.38-13.658 24.508-29.072 37.048-47.12 5.112-7.372 15.222-9.198 22.634-4.064a16.252 16.252 0 0 1 4.064 22.62c-13.366 19.206-26.334 35.69-39.65 50.388a16.22 16.22 0 0 1-12.05 5.342zM505.174 739.556a16.162 16.162 0 0 1-8.334-2.31c-7.698-4.62-10.206-14.604-5.588-22.302 10.318-17.23 20.126-34.532 29.634-51.31 12.682-22.38 24.666-43.524 36.872-62.81 4.794-7.588 14.842-9.858 22.428-5.048 7.572 4.802 9.842 14.842 5.032 22.428-11.778 18.62-23.572 39.428-36.048 61.452-9.634 17.008-19.572 34.54-30.048 52a16.228 16.228 0 0 1-13.948 7.9zM219.412 837.08a16.266 16.266 0 0 1-16.174-14.802 16.256 16.256 0 0 1 14.746-17.642 334.84 334.84 0 0 0 30.984-4.254c8.778-1.604 17.302 4.198 18.952 13.024a16.256 16.256 0 0 1-13.016 18.944 366.52 366.52 0 0 1-34.032 4.666 18.14 18.14 0 0 1-1.46 0.064zM316.952 813.612a16.266 16.266 0 0 1-15.048-10.12 16.244 16.244 0 0 1 8.904-21.19c28.858-11.786 54.714-27.388 76.826-46.38a16.268 16.268 0 0 1 22.92 1.73 16.26 16.26 0 0 1-1.746 22.92c-24.762 21.286-53.604 38.722-85.714 51.826a16.182 16.182 0 0 1-6.142 1.214z" fill="#646464" /><path d="M636.45 496.694c-47.634-9.664-207.746-132.868-312.212-132.868-104.488 0-178.34 30.748-302.698 33.15 13.958 0.678 34.968-0.42 64.906-3.86 368.288-42.302 311.78 103.578 550.004 103.578z" fill="#B0EB81" /><path d="M34.582 696.954a510.652 510.652 0 0 0 61.186 113.018l294.326-55.064 181.396-215.82-12.688-22.854c-109.148 35.532-295.51 199.11-524.22 180.72z" fill="#FFEFC6" /><path d="M804.326 495.758l-162.294 1.876c-1.552 0-3.642-0.548-5.58-0.94-199.696 16.488-249.506 256.644-574.836 259.002 60.072 110.788 159.87 196.82 280.242 239.232C630.46 844.792 576.19 496.02 804.326 495.758z" fill="#57B9E7" /><path d="M224.3 610.522c-0.564-10.996-9.48-19.8-20.618-19.8-9.37 0-16.996 6.302-19.612 14.814-3.606-12.274-14.822-21.29-28.262-21.29-13.048 0-23.996 8.502-27.93 20.226a34.526 34.526 0 0 0-18.346-17.652c-3.42-15.454-17.156-27.03-33.638-27.03-13.74 0-25.502 8.092-31.052 19.714-3.906-1.226-7.982-2.07-12.292-2.07-10.194 0-19.406 3.834-26.612 9.954 3.874 26.208 9.6 51.794 17.286 76.546 102.914 4.77 226.214-25.686 285.602-61.182 0-0.002-37.828 6.174-84.526 7.77zM960.632 758.782c-18.018-22.662-45.772-37.236-76.974-37.236-54.316 0-98.35 44.032-98.35 98.35 0 1.104 0.128 2.174 0.164 3.27a89.06 89.06 0 0 0-44.376 24.318 94.508 94.508 0 0 0-36.76-7.398c-52.364 0-94.814 42.45-94.814 94.816-33.15 0-60.024 26.874-60.024 60.024 0 9.784 2.564 18.884 6.716 27.046 174.502-14.938 323.996-117.298 404.418-263.19z" fill="#43AB5F" /><path d="M473.912 609.514c-67.236 81.626-43.416 132.626 12.764 79.248 98.58-93.668 219.576-189.044 288.086-192.662l-132.73 1.534c-59.784 9.766-103.694 33.668-168.12 111.88z" fill="#79CEEA" /><path d="M624.144 632.028c-29.404 55.902-197.742 270.438-401.568 302.13 36.632 25.14 76.63 45.742 119.28 60.768 171.32-89.12 221.818-248.236 282.288-362.898zM624.298 631.74c0.354-0.672 0.72-1.304 1.076-1.974h-0.016c-0.296 0.592-0.728 1.34-1.06 1.974zM487.606 558.146c-104.4 76.358-196.884 195.888-425.992 197.55 8.248 15.212 17.312 29.904 27.008 44.134 197.176-3.382 322.924-182.808 398.984-241.684z" fill="#3C9BD4" /><path d="M1016.128 422.99c-92.198 3.986-95.806 72.762-211.23 72.762l-6.602 0.076c23.464 9.242 51.996 15.346 82.464 10.076 91.132-15.76 126.26-14.842 142.956-6.314a518.032 518.032 0 0 0-7.588-76.6z" fill="#B0EB81" /></svg>