<?xml version="1.0" encoding="utf-8"?>
<!-- Uploaded to: SVG Repo, www.svgrepo.com, Generator: SVG Repo Mixer Tools -->
<svg width="800px" height="800px" viewBox="0 0 1024 1024" class="icon"  version="1.1" xmlns="http://www.w3.org/2000/svg"><path d="M1023.92022 512c5.012 282.77-220.118 512-502.842 512S5.09622 794.77 0.08422 512 220.20222 0 502.92622 0s515.982 229.23 520.994 512z" fill="#FFF9BB" /><path d="M956.09822 496h-37.91v-55.5H625.73422l-44.934-44.25L512.00222 464H236.81222v-48H124.34822v27.578H91.50222l-29.234-28.79-55.348 54.504 195.366 52.04 412.786 52.422 407.596-17.362c0.998-14.644 1.518-29.424 1.252-44.394-0.242-13.674-1.178-27.18-2.468-40.584h-65.354V496z" fill="#FFEB97" /><path d="M40.84222 704h178.708v-176H0.77222c3.012 62.09 16.986 121.378 40.07 176z" fill="#FAD2A3" /><path d="M2.17022 547.742h184.884v-19.5H0.79022c0.32 6.536 0.82 13.026 1.38 19.5z" fill="#FF8562" /><path d="M219.54822 368h297.84v336h-297.84z" fill="#FFF4DB" /><path d="M219.54822 368h297.84v64h-297.84z" fill="#F26E64" /><path d="M1020.79422 577.254h-159.136V704h128.31c15.484-39.99 25.976-82.478 30.826-126.746z" fill="#FFF4DB" /><path d="M603.73222 448h257.928v256H603.73222z" fill="#FAD2A3" /><path d="M603.73222 448h257.928v19.5H603.73222z" fill="#FF8562" /><path d="M398.27022 528h227.464v176H398.27022z" fill="#FFFCEC" /><path d="M105.51022 816c95.476 126.156 246.672 208 415.566 208 168.896 0 317.19-81.844 408.192-208H105.51022z" fill="#E8A271" /><path d="M968.46222 752H64.05022a524.796 524.796 0 0 0 41.46 64h823.76a500.206 500.206 0 0 0 39.192-64z" fill="#D8C34A" /><path d="M42.85822 708.898A520.58 520.58 0 0 0 64.05022 752H968.46222a499.804 499.804 0 0 0 21.508-48H42.85822v4.898z" fill="#E5AF7C" /><path d="M42.85822 708.898c2.508 5.772 5.21 11.442 7.924 17.102h930.016c3.204-7.254 6.296-14.572 9.17-22H42.85822v4.898z" fill="#D0D75B" /><path d="M447.01222 139.592c0-22.948 18.89-41.552 42.194-41.552 3.518 0 6.88 0.548 10.146 1.346 11.01-11.708 26.62-19.154 44.104-19.154 33.29 0 60.276 26.576 60.276 59.358h-156.72z" fill="#FFF1A9" /><path d="M518.94022 158c0-18.59 15.304-33.662 34.182-33.662 2.85 0 5.574 0.444 8.22 1.09 8.92-9.486 21.566-15.516 35.728-15.516 26.968 0 48.832 21.53 48.832 48.088h-126.962zM830.94022 355.674c0-14.052 11.568-25.442 25.836-25.442 2.154 0 4.212 0.336 6.212 0.824 6.742-7.17 16.3-11.728 27.006-11.728 20.384 0 36.908 16.274 36.908 36.346h-95.962zM327.34222 318c0-13.734 11.306-24.866 25.252-24.866 2.104 0 4.118 0.328 6.072 0.806 6.588-7.008 15.932-11.462 26.394-11.462 19.922 0 36.072 15.904 36.072 35.524H327.34222z" fill="#FFF1A9" /><path d="M246.02222 244.154c0-33.306 27.418-60.308 61.24-60.308 5.104 0 9.986 0.796 14.726 1.954 15.98-16.994 38.638-27.8 64.012-27.8 48.316 0 87.486 38.572 87.486 86.154H246.02222zM744.88222 242.034c-5.114 0-9.948 0.992-14.58 2.43-14.674-20.772-39.016-34.43-66.658-34.43s-51.984 13.658-66.658 34.43c-4.632-1.438-9.466-2.43-14.58-2.43-26.92 0-48.742 21.49-48.742 48H793.62222c0.002-26.51-21.82-48-48.74-48z" fill="#FFEB97" /><path d="M807.24822 230.852c-3.33 0-6.476 0.646-9.492 1.582a53.008 53.008 0 0 0-43.396-22.416 53.006 53.006 0 0 0-43.396 22.416c-3.016-0.936-6.162-1.582-9.492-1.582-17.526 0-31.734 13.992-31.734 31.25h169.244c-0.002-17.258-14.208-31.25-31.734-31.25zM281.64822 232.972c-3.33 0-6.476 0.646-9.492 1.582-9.554-13.524-25.4-22.416-43.396-22.416s-33.844 8.892-43.396 22.416c-3.016-0.936-6.162-1.582-9.492-1.582-17.526 0-31.734 13.992-31.734 31.25h169.244c-0.002-17.258-14.21-31.25-31.734-31.25z" fill="#FFEB97" /><path d="M807.91622 384h-150.44l-60.176 64h270.79z" fill="#F26E64" /><path d="M124.84022 840h785.95a501.618 501.618 0 0 0 18.48-24H105.51022a528.47 528.47 0 0 0 19.33 24z" fill="#D29672" /><path d="M447.01222 577.254h48.742v64h-48.742z" fill="#63A0B5" /><path d="M499.81622 645.258h-56.866v-72h56.866v72z m-48.742-8h40.618v-56h-40.618v56z" fill="#4185A6" /><path d="M447.01222 589.258h48.742v8h-48.742z" fill="#4185A6" /><path d="M528.25022 577.254h48.742v64h-48.742z" fill="#63A0B5" /><path d="M581.05422 645.258h-56.866v-72h56.866v72z m-48.742-8h40.618v-56h-40.618v56z" fill="#4185A6" /><path d="M528.25022 589.258h48.742v8h-48.742z" fill="#4185A6" /><path d="M560.74422 440.5h-97.484l-81.238 96h259.96z" fill="#F26E64" /><path d="M398.27022 684h227.464v20H398.27022z" fill="#EBD7BD" /><path d="M219.54822 660.754h178.722V704h-178.722z" fill="#E8A271" /><path d="M398.27022 536.5h227.464V556H398.27022zM219.54822 430.75h297.84v19.5h-297.84z" fill="#FF8562" /><path d="M658.90622 577.254h36.556v64h-36.556z" fill="#63A0B5" /><path d="M699.53022 645.258h-44.68v-72h44.68v72z m-36.558-8h28.432v-56h-28.432v56z" fill="#4185A6" /><path d="M658.91022 589.258h36.556v8h-36.556z" fill="#4185A6" /><path d="M714.41822 577.254h36.556v64h-36.556z" fill="#63A0B5" /><path d="M755.03022 645.258h-44.68v-72h44.68v72z m-36.556-8h28.432v-56h-28.432v56z" fill="#4185A6" /><path d="M714.41222 589.258h36.556v8h-36.556z" fill="#4185A6" /><path d="M769.93022 577.254h36.556v64h-36.556z" fill="#63A0B5" /><path d="M810.54822 645.258h-44.68v-72h44.68v72z m-36.556-8h28.432v-56h-28.432v56z" fill="#4185A6" /><path d="M769.93022 589.258h36.556v8h-36.556z" fill="#4185A6" /><path d="M35.99022 577.254h36.556v64H35.99022z" fill="#63A0B5" /><path d="M76.60622 645.258h-44.68v-72h44.68v72z m-36.556-8H68.48222v-56H40.05022v56z" fill="#4185A6" /><path d="M35.98822 589.258h36.556v8H35.98822z" fill="#4185A6" /><path d="M91.50222 577.254h36.556v64H91.50222z" fill="#63A0B5" /><path d="M132.12422 645.258h-44.68v-72h44.68v72z m-36.556-8h28.432v-56H95.56822v56z" fill="#4185A6" /><path d="M91.50622 589.258H128.06222v8H91.50622z" fill="#4185A6" /><path d="M147.01422 577.254h36.556v64H147.01422z" fill="#63A0B5" /><path d="M187.62622 645.258h-44.68v-72h44.68v72z m-36.558-8H179.50222v-56H151.06822v56z" fill="#4185A6" /><path d="M147.00622 589.258H183.56222v8H147.00622z" fill="#4185A6" /><path d="M658.90622 488h36.556v48h-36.556z" fill="#63A0B5" /><path d="M699.53022 540h-44.68v-56h44.68v56z m-36.558-8h28.432v-40h-28.432v40z" fill="#4185A6" /><path d="M658.91022 500h36.556v8h-36.556z" fill="#4185A6" /><path d="M714.41822 488h36.556v48h-36.556z" fill="#63A0B5" /><path d="M755.03022 540h-44.68v-56h44.68v56z m-36.556-8h28.432v-40h-28.432v40z" fill="#4185A6" /><path d="M714.41222 500h36.556v8h-36.556z" fill="#4185A6" /><path d="M769.93022 488h36.556v48h-36.556z" fill="#63A0B5" /><path d="M810.54822 540h-44.68v-56h44.68v56z m-36.556-8h28.432v-40h-28.432v40z" fill="#4185A6" /><path d="M769.93022 500h36.556v8h-36.556z" fill="#4185A6" /><path d="M625.73422 673.334h235.926V704H625.73422z" fill="#B66E64" /><path d="M745.50622 694.406c-2.686 0-5.226 0.52-7.66 1.276a42.778 42.778 0 0 0-35.022-18.09 42.778 42.778 0 0 0-35.022 18.09c-2.434-0.756-4.974-1.276-7.66-1.276-14.144 0-25.608 11.29-25.608 25.218h136.58c0-13.926-11.466-25.218-25.608-25.218z" fill="#69BE5D" /><path d="M762.99422 694.406c-2.686 0-5.226 0.52-7.66 1.276a42.778 42.778 0 0 0-35.022-18.09c-3.02 0-5.906 0.484-8.744 1.074 10.818 2.246 20.172 8.37 26.278 17.016 2.434-0.756 4.974-1.276 7.66-1.276 14.144 0 25.608 11.292 25.608 25.218h17.488c0-13.926-11.464-25.218-25.608-25.218z" fill="#9DC85C" /><path d="M1023.73422 536.5h-162.076v40.754h159.136c1.474-13.44 2.536-27.006 2.94-40.754z" fill="#F26E64" /><path d="M883.15422 612.5h96.976v46.056h-96.976z" fill="#63A0B5" /><path d="M984.19222 662.554h-105.1V608.5h105.1v54.054z m-96.976-8h88.852V616.5h-88.852v38.054z" fill="#4185A6" /><path d="M927.58022 612.5h8.124v46.054h-8.124z" fill="#4185A6" /><path d="M861.66022 512h17.264v65.254h-17.264z" fill="#F26E64" /><path d="M219.54822 349.578h17.264v55.676h-17.264z" fill="#F26E64" /><path d="M202.28622 443.578h17.264v55.676h-17.264z" fill="#F26E64" /><path d="M285.96222 337.5h22.848v54.614H285.96222z" fill="#B66E64" /><path d="M428.12822 337.5h22.848v54.614h-22.848z" fill="#B66E64" /><path d="M500.12622 349.578h17.264v55.676h-17.264z" fill="#F26E64" /><path d="M1020.79422 577.254h-159.136v19.5h156.354c0.968-6.486 2.062-12.93 2.782-19.5z" fill="#FF8562" /><path d="M273.70622 573.754h36.556v64h-36.556z" fill="#63A0B5" /><path d="M314.32022 641.758h-44.68v-72h44.68v72z m-36.556-8h28.432v-56h-28.432v56z" fill="#4185A6" /><path d="M273.70222 585.758h36.556v8H273.70222z" fill="#4185A6" /><path d="M339.37422 573.754h36.556v64h-36.556z" fill="#63A0B5" /><path d="M379.99222 641.758h-44.68v-72h44.68v72z m-36.556-8h28.432v-56h-28.432v56z" fill="#4185A6" /><path d="M339.37422 585.758h36.556v8h-36.556z" fill="#4185A6" /><path d="M273.70622 484.5h36.556v48h-36.556z" fill="#63A0B5" /><path d="M314.32022 536.5h-44.68v-56h44.68v56z m-36.556-8h28.432v-40h-28.432v40z" fill="#4185A6" /><path d="M273.70222 496.5h36.556v8H273.70222z" fill="#4185A6" /><path d="M339.37422 484.5h36.556v48h-36.556z" fill="#63A0B5" /><path d="M379.99222 536.5h-44.68v-56h44.68v56z m-36.556-8h28.432v-40h-28.432v40z" fill="#4185A6" /><path d="M339.37422 496.5h36.556v8h-36.556z" fill="#4185A6" /><path d="M219.54822 464H1.54622c-1.19 15.81-1.748 31.804-1.462 48 0.096 5.366 0.43 10.674 0.688 16h218.776v-64z" fill="#F26E64" /><path d="M40.84222 704h178.708v-30.666H29.14622c3.62 10.354 7.448 20.614 11.696 30.666z" fill="#B66E64" /><path d="M213.56022 715.512V633.56c0-4.206-3.462-7.616-7.738-7.616s-7.738 3.41-7.738 7.616v81.95h15.476z" fill="#996459" /><path d="M260.69022 608.444c0 41.47-24.566 62.284-54.872 62.284s-54.872-20.816-54.872-62.284 33.612-203.188 54.872-203.188 54.872 161.718 54.872 203.188z" fill="#69BE5D" /><path d="M205.81822 405.254c-4.21 0-8.908 6.412-13.73 16.908 17.342 25.866 39.78 153.66 39.78 189.156 0 34.68-15.66 54.204-36.452 58.492 3.374 0.576 6.838 0.918 10.402 0.918 30.304 0 54.872-20.816 54.872-62.284 0-41.47-33.612-203.19-54.872-203.19z" fill="#9DC85C" /><path d="M280.37222 715.512v-63c0-3.232-2.662-5.854-5.95-5.854-3.288 0-5.95 2.622-5.95 5.854v63h11.9z" fill="#996459" /><path d="M316.60222 633.202c0 31.88-18.886 47.882-42.182 47.882s-42.182-16.002-42.182-47.882 25.84-156.204 42.182-156.204 42.182 124.324 42.182 156.204z" fill="#69BE5D" /><path d="M274.42022 476.998c-3.236 0-6.848 4.93-10.556 12.998 13.332 19.884 30.58 118.126 30.58 145.416 0 26.66-12.038 41.67-28.022 44.966a47.5 47.5 0 0 0 7.996 0.706c23.296 0 42.182-16.002 42.182-47.882s-25.838-156.204-42.18-156.204z" fill="#9DC85C" /><path d="M719.74822 688.876c-3.276 0-6.372 0.634-9.34 1.556a52.156 52.156 0 0 0-42.702-22.056 52.16 52.16 0 0 0-42.702 22.056c-2.968-0.922-6.064-1.556-9.34-1.556-17.246 0-31.226 13.768-31.226 30.75h166.536c0-16.984-13.98-30.75-31.226-30.75z" fill="#69BE5D" /><path d="M667.11422 688.876c-3.276 0-6.372 0.634-9.34 1.556a52.156 52.156 0 0 0-42.702-22.056 52.16 52.16 0 0 0-42.702 22.056c-2.968-0.922-6.064-1.556-9.34-1.556-17.246 0-31.226 13.768-31.226 30.75h166.536c0-16.984-13.98-30.75-31.226-30.75z" fill="#69BE5D" /><path d="M688.43822 688.874c-3.276 0-6.372 0.634-9.34 1.556a52.158 52.158 0 0 0-42.704-22.056c-3.682 0-7.2 0.59-10.662 1.31 13.192 2.738 24.596 10.206 32.04 20.748 2.968-0.922 6.064-1.556 9.34-1.556 17.246 0 31.226 13.768 31.226 30.75h21.324c0.002-16.984-13.978-30.752-31.224-30.752z" fill="#9DC85C" /></svg>